<svg width="551" height="591" viewBox="0 0 551 591" fill="none" xmlns="http://www.w3.org/2000/svg">
<g clip-path="url(#clip0_156_663)">
<path d="M390.344 509.492L381.551 72.1017L292.941 29.4915L296.134 509.492H390.344Z" fill="#96D29B"/>
<path d="M194.387 353.237H194.283C194.23 352.017 194.126 350.847 193.969 349.678C190.985 327.356 171.934 314.034 148.905 319.373C124.619 325.017 104.835 349.271 103.474 374.339H103.37V509.492H14.3933L15.3878 428.034L15.6494 404.797L18.0047 207.763L18.3187 183.102L19.1562 111.763L292.942 29.4915L293.413 97.7288L293.622 126.458L294.878 318.508L295.088 346.729L296.187 509.492H194.387V353.237Z" fill="#A0E8A6"/>
<path d="M400.707 48.1017C400.707 48.1017 399.922 63.6102 381.551 72.1525L292.941 29.4915C292.941 29.4915 300.949 20.1864 296.134 0L400.707 48.1017Z" fill="#296648"/>
<path d="M296.134 0L0 92.2881C0 92.2881 4.81519 107.797 19.1561 111.661L292.942 29.4915C292.942 29.4915 300.95 19.3729 296.134 0Z" fill="#4B8F6E"/>
<path d="M403.167 144.153C403.167 144.153 402.382 159.661 384.011 168.203L293.726 126.407C293.726 126.407 303.357 116.237 298.594 96.1017L403.167 144.153Z" fill="#296648"/>
<path d="M298.594 96.1017L0.784912 188.441C0.784912 188.441 3.19251 203.949 17.5334 207.814L293.727 126.407C293.727 126.407 303.409 115.475 298.594 96.1017Z" fill="#4B8F6E"/>
<path d="M407.041 363.864C407.041 363.864 406.256 379.373 387.885 387.915L295.349 346.627C295.349 346.627 308.905 335.746 304.142 315.61L407.041 363.864Z" fill="#E8A656"/>
<path d="M100.963 381.153L103.37 402.407L15.3359 428.034L15.1265 428.085C3.97828 422.644 4.65869 408.153 4.65869 408.153L15.6499 404.746L103.37 377.644L100.963 381.153Z" fill="#FFBE69"/>
<path d="M184.704 329.136C178.109 326.847 170.52 326.39 162.408 328.271C138.122 333.915 118.338 358.169 116.977 383.237H116.873V509.492H103.317V374.339H103.422C104.73 349.271 124.567 325.017 148.852 319.373C163.454 315.966 176.382 320.034 184.704 329.136Z" fill="#296648"/>
<path d="M194.387 353.237V509.492H116.925V383.237H117.03C118.338 358.169 138.175 333.915 162.46 328.271C170.573 326.39 178.162 326.797 184.756 329.136C185.123 329.542 185.489 330 185.856 330.407C190.095 335.542 192.974 342.102 193.968 349.678C194.125 350.847 194.282 352.017 194.387 353.237Z" fill="#63D69F"/>
<path d="M194.387 353.237V509.492H120.118V385.169H120.223C121.531 360.102 141.368 335.847 165.653 330.203C172.928 328.525 179.784 328.678 185.856 330.407C190.095 335.542 192.974 342.102 193.968 349.678C194.125 350.847 194.282 352.017 194.387 353.237Z" fill="#4B8F6E"/>
<path d="M103.37 377.644V402.407L100.962 381.153L103.37 377.644Z" fill="#FFBE69"/>
<path d="M116.926 379.576C116.926 379.576 116.926 397.322 103.37 402.407V377.644L116.926 379.576Z" fill="#E8A656"/>
<path d="M305.136 323.898C305.084 337.373 296.5 345.559 295.453 346.525C295.401 346.576 295.349 346.627 295.349 346.627L295.087 346.729L194.387 375.966L188.786 367.169C188.786 367.169 184.809 360.203 188.001 351.661L294.878 318.458L304.142 315.61C304.77 318.254 305.084 320.746 305.136 323.085C305.136 323.339 305.136 323.644 305.136 323.898Z" fill="#FFBE69"/>
<path d="M577.451 440.72C577.451 440.72 552.118 394.144 526.577 376.042C501.036 357.94 501.768 323.517 501.768 323.517C501.768 323.517 461.101 394.144 535.161 491.72L576.927 476.11L577.451 440.72Z" fill="#3FAA5D"/>
<path d="M477.588 461.415C477.588 461.415 452.622 414.686 451.89 383.924C451.157 353.212 421.585 334.246 421.585 334.246C421.585 334.246 504.49 341.974 544.844 456.686L507.84 481.144L477.588 461.415Z" fill="#C3F4CB"/>
<path d="M456.285 356.517C456.285 356.517 507.054 425.161 530.607 473.466" stroke="#296B00" stroke-width="2" stroke-miterlimit="10" stroke-linecap="round"/>
<path d="M369.665 305.364C369.665 305.364 441.736 363.025 474.134 452.364" stroke="#296C00" stroke-width="2" stroke-miterlimit="10" stroke-linecap="round"/>
<path d="M469.27 387.586C472.065 376.079 470.112 365.784 464.907 364.59C459.702 363.397 453.217 371.758 450.422 383.265C447.626 394.772 449.58 405.067 454.785 406.261C459.989 407.454 466.475 399.093 469.27 387.586Z" fill="#296648"/>
<path d="M446.735 344.227C450.486 328.785 448.624 315.141 442.575 313.754C436.526 312.368 428.581 323.762 424.83 339.205C421.078 354.648 422.941 368.291 428.99 369.678C435.039 371.065 442.983 359.67 446.735 344.227Z" fill="#296648"/>
<path d="M412.68 314.014C415.714 301.523 413.977 290.435 408.801 289.248C403.624 288.061 396.968 297.225 393.933 309.716C390.899 322.207 392.636 333.295 397.812 334.482C402.989 335.669 409.645 326.505 412.68 314.014Z" fill="#296648"/>
<path d="M437.389 426.176C449.5 425.02 458.894 419.892 458.371 414.722C457.849 409.552 447.607 406.297 435.496 407.452C423.385 408.608 413.991 413.736 414.513 418.906C415.036 424.076 425.278 427.331 437.389 426.176Z" fill="#296648"/>
<path d="M406.978 392.203C423.231 390.653 435.915 384.525 435.308 378.516C434.7 372.507 421.032 368.893 404.778 370.444C388.525 371.994 375.841 378.122 376.448 384.131C377.056 390.14 390.724 393.754 406.978 392.203Z" fill="#296648"/>
<path d="M383.632 355.602C396.779 354.348 407.015 349.162 406.495 344.02C405.975 338.878 394.897 335.726 381.75 336.98C368.603 338.234 358.367 343.42 358.887 348.562C359.407 353.704 370.486 356.856 383.632 355.602Z" fill="#296648"/>
<path d="M380.628 315.853C384.116 311.952 378.86 301.966 368.888 293.549C358.916 285.131 348.004 281.469 344.515 285.37C341.026 289.271 346.283 299.257 356.255 307.674C366.227 316.092 377.139 319.753 380.628 315.853Z" fill="#296648"/>
<path d="M526.001 470.161C526.001 470.161 526.211 417.483 540.29 389.974C554.317 362.415 537.202 332.313 537.202 332.313C537.202 332.313 606.917 376.551 587.814 496.398L543.378 501.381L526.001 470.161Z" fill="#296648"/>
<path d="M280.178 394.653C279.602 394.449 309.069 374.416 327.545 392.67C344.922 411.331 350.417 396.229 397.313 405.941C442.272 418.246 415.684 415.297 428.873 434.619C440.597 454.907 440.44 433.653 469.122 445.399C496.6 458.263 486.289 456.178 487.127 478.093C487.127 500.314 477.653 482.11 498.432 494.263C509.214 500.924 501.311 518.975 491.471 530.314C481.16 541.602 468.965 546.127 460.643 524.466C451.117 502.449 442.429 491.466 434.945 485.822C427.251 480.229 420.813 480.026 411.183 480.585C391.765 482.314 394.225 477.636 365.91 453.941C351.15 442.5 343.718 442.958 336.966 443.975C330.057 445.093 323.829 446.771 307.29 440.721C272.903 430.043 296.299 422.009 264.529 412.093C248.251 407.517 235.742 404.06 236.004 400.195C236.213 396.738 249.036 392.822 280.178 394.653Z" fill="#3FAA5D"/>
<path d="M435.835 559.133C435.835 559.133 393.283 526.488 379.623 498.777C365.962 471.065 331 465.573 331 465.573C331 465.573 409.875 439.539 495.188 528.014L471.792 565.082L435.835 559.133Z" fill="#296648"/>
<path d="M280.387 404.873C280.387 404.873 451.012 420.636 503.874 533.009" stroke="#296B00" stroke-width="2" stroke-miterlimit="10" stroke-linecap="round"/>
<path d="M376.117 473.658C376.117 473.658 475.09 525.472 498.067 569.76" stroke="#112A02" stroke-width="2" stroke-miterlimit="10" stroke-linecap="round"/>
<path d="M553.188 474.61C553.188 474.61 509.275 443.695 478.134 438.458C446.94 433.22 432.023 402 432.023 402C432.023 402 427.679 482.797 538.533 538.525L568.89 506.593L553.188 474.61Z" fill="#7CDA96"/>
<path d="M443.014 426.508C443.014 426.508 459.762 458.034 552.402 518.034" stroke="#296B00" stroke-width="2" stroke-miterlimit="10" stroke-linecap="round"/>
</g>
<defs>
<clipPath id="clip0_156_663">
<rect width="565" height="591" fill="white"/>
</clipPath>
</defs>
</svg>
