<svg width="278" height="293" viewBox="0 0 278 293" fill="none" xmlns="http://www.w3.org/2000/svg">
<path d="M-64.3226 162.413C-64.3226 162.413 -38.9906 115.837 -13.4491 97.7349C12.0924 79.6332 11.3596 45.2094 11.3596 45.2094C11.3596 45.2094 52.0271 115.837 -22.0327 213.413L-63.7993 197.803L-64.3226 162.413Z" fill="#3FAA5D"/>
<path d="M35.5399 183.108C35.5399 183.108 60.5057 136.379 61.2384 105.616C61.9711 74.9044 91.5427 55.9383 91.5427 55.9383C91.5427 55.9383 8.63767 63.6671 -31.7157 178.379L5.28795 202.837L35.5399 183.108Z" fill="#C3F4CB"/>
<path d="M56.8425 78.2094C56.8425 78.2094 6.07366 146.854 -17.4789 195.159" stroke="#296B00" stroke-width="2" stroke-miterlimit="10" stroke-linecap="round"/>
<path d="M143.463 27.0569C143.463 27.0569 71.392 84.7179 38.9942 174.057" stroke="#296C00" stroke-width="2" stroke-miterlimit="10" stroke-linecap="round"/>
<path d="M43.8578 109.279C41.0625 97.772 43.0158 87.4763 48.2206 86.283C53.4255 85.0896 59.9109 93.4505 62.7062 104.957C65.5015 116.464 63.5482 126.76 58.3434 127.953C53.1385 129.147 46.6531 120.786 43.8578 109.279Z" fill="#296648"/>
<path d="M66.3931 65.9201C62.6417 50.4772 64.5041 36.8341 70.553 35.4472C76.6018 34.0603 84.5465 45.455 88.298 60.8978C92.0494 76.3407 90.187 89.9839 84.1381 91.3707C78.0893 92.7576 70.1445 81.3629 66.3931 65.9201Z" fill="#296648"/>
<path d="M100.448 35.7066C97.4139 23.2156 99.1506 12.1276 104.327 10.9407C109.504 9.75377 116.16 18.9175 119.195 31.4085C122.229 43.8994 120.492 54.9875 115.316 56.1744C110.139 57.3613 103.483 48.1975 100.448 35.7066Z" fill="#296648"/>
<path d="M75.7393 147.868C63.6283 146.713 54.234 141.585 54.7566 136.415C55.2792 131.244 65.5208 127.99 77.6318 129.145C89.7429 130.301 99.1371 135.429 98.6145 140.599C98.0919 145.769 87.8503 149.024 75.7393 147.868Z" fill="#296648"/>
<path d="M106.15 113.896C89.8967 112.345 77.213 106.217 77.8204 100.209C78.4277 94.1998 92.0962 90.5858 108.35 92.1364C124.603 93.687 137.287 99.815 136.68 105.824C136.072 111.832 122.404 115.446 106.15 113.896Z" fill="#296648"/>
<path d="M129.496 77.2947C116.349 76.0405 106.113 70.8551 106.633 65.7128C107.152 60.5705 118.231 57.4185 131.378 58.6727C144.525 59.9269 154.761 65.1123 154.241 70.2546C153.721 75.3969 142.642 78.5489 129.496 77.2947Z" fill="#296648"/>
<path d="M132.5 37.5455C129.012 33.6448 134.268 23.6589 144.24 15.2413C154.212 6.82378 165.124 3.16213 168.613 7.0628C172.101 10.9635 166.845 20.9494 156.873 29.3669C146.901 37.7845 135.989 41.4462 132.5 37.5455Z" fill="#296648"/>
<path d="M232.95 116.346C233.525 116.142 204.059 96.1082 185.583 114.362C168.206 133.023 162.711 117.922 115.815 127.634C70.8557 139.939 97.444 136.99 84.2545 156.312C72.5306 176.6 72.6876 155.346 44.0058 167.091C16.5278 179.956 26.8386 177.871 26.0012 199.786C26.0012 222.007 35.4745 203.803 14.696 215.956C3.91412 222.617 11.8173 240.668 21.657 252.007C31.9678 263.295 44.1628 267.82 52.4848 246.159C62.0105 224.142 70.6987 213.159 78.1832 207.515C85.877 201.922 92.3148 201.718 101.945 202.278C121.363 204.007 118.903 199.329 147.218 175.634C161.978 164.193 169.41 164.651 176.162 165.668C183.071 166.786 189.299 168.464 205.838 162.413C240.225 151.735 216.829 143.701 248.599 133.786C264.877 129.21 277.386 125.752 277.124 121.888C276.915 118.43 264.091 114.515 232.95 116.346Z" fill="#3FAA5D"/>
<path d="M77.2928 280.825C77.2928 280.825 119.844 248.181 133.505 220.469C147.165 192.757 182.128 187.266 182.128 187.266C182.128 187.266 103.253 161.232 17.9404 249.707L41.3359 286.774L77.2928 280.825Z" fill="#296648"/>
<path d="M232.741 126.566C232.741 126.566 62.1159 142.329 9.25349 254.701" stroke="#296B00" stroke-width="2" stroke-miterlimit="10" stroke-linecap="round"/>
<path d="M137.011 195.351C137.011 195.351 38.0381 247.164 15.0613 291.452" stroke="#112A02" stroke-width="2" stroke-miterlimit="10" stroke-linecap="round"/>
<path d="M-40.0599 196.303C-40.0599 196.303 3.85256 165.388 34.9943 160.15C66.1884 154.913 81.105 123.693 81.105 123.693C81.105 123.693 85.4491 204.489 -25.405 260.218L-55.7616 228.286L-40.0599 196.303Z" fill="#7CDA96"/>
<path d="M70.1143 148.201C70.1143 148.201 53.3658 179.727 -39.2744 239.727" stroke="#296B00" stroke-width="2" stroke-miterlimit="10" stroke-linecap="round"/>
</svg>
