<svg width="303" height="256" viewBox="0 0 303 256" fill="none" xmlns="http://www.w3.org/2000/svg">
<path d="M17.272 124.36V106.696L57.72 48.84H82.168V105.416H92.664V124.36H82.168V141H60.28V124.36H17.272ZM61.816 72.904L40.312 105.416H61.816V72.904ZM103.385 93C103.385 78.3227 106.201 66.76 111.833 58.312C117.55 49.864 126.724 45.64 139.353 45.64C151.982 45.64 161.113 49.864 166.745 58.312C172.462 66.76 175.321 78.3227 175.321 93C175.321 107.848 172.462 119.496 166.745 127.944C161.113 136.392 151.982 140.616 139.353 140.616C126.724 140.616 117.55 136.392 111.833 127.944C106.201 119.496 103.385 107.848 103.385 93ZM153.817 93C153.817 84.3813 152.878 77.768 151.001 73.16C149.124 68.4667 145.241 66.12 139.353 66.12C133.465 66.12 129.582 68.4667 127.705 73.16C125.828 77.768 124.889 84.3813 124.889 93C124.889 98.8027 125.23 103.624 125.913 107.464C126.596 111.219 127.961 114.291 130.009 116.68C132.142 118.984 135.257 120.136 139.353 120.136C143.449 120.136 146.521 118.984 148.569 116.68C150.702 114.291 152.11 111.219 152.793 107.464C153.476 103.624 153.817 98.8027 153.817 93ZM187.397 124.36V106.696L227.845 48.84H252.293V105.416H262.789V124.36H252.293V141H230.405V124.36H187.397ZM231.941 72.904L210.437 105.416H231.941V72.904Z" fill="black"/>
<path d="M12.96 176.04V190H10.16V184.06H4.18V190H1.38V176.04H4.18V181.78H10.16V176.04H12.96ZM24.2759 187.34H18.7159L17.7959 190H14.8559L19.8759 176.02H23.1359L28.1559 190H25.1959L24.2759 187.34ZM23.5159 185.1L21.4959 179.26L19.4759 185.1H23.5159ZM32.8323 187.78H37.4323V190H30.0323V176.04H32.8323V187.78ZM47.772 187.34H42.212L41.292 190H38.352L43.372 176.02H46.632L51.652 190H48.692L47.772 187.34ZM47.012 185.1L44.992 179.26L42.972 185.1H47.012ZM68.7484 176.04V190H65.9484V180.92L62.2084 190H60.0884L56.3284 180.92V190H53.5284V176.04H56.7084L61.1484 186.42L65.5884 176.04H68.7484ZM80.0767 187.34H74.5167L73.5967 190H70.6567L75.6767 176.02H78.9367L83.9567 190H80.9967L80.0767 187.34ZM79.3167 185.1L77.2967 179.26L75.2767 185.1H79.3167ZM97.7731 190H94.9731L88.6331 180.42V190H85.8331V176.02H88.6331L94.9731 185.62V176.02H97.7731V190ZM114.806 176.04V178.3H111.086V190H108.286V178.3H104.566V176.04H114.806ZM119.649 176.04V190H116.849V176.04H119.649ZM127.295 176.04C128.762 176.04 130.048 176.327 131.155 176.9C132.275 177.473 133.135 178.293 133.735 179.36C134.348 180.413 134.655 181.64 134.655 183.04C134.655 184.44 134.348 185.667 133.735 186.72C133.135 187.76 132.275 188.567 131.155 189.14C130.048 189.713 128.762 190 127.295 190H122.415V176.04H127.295ZM127.195 187.62C128.662 187.62 129.795 187.22 130.595 186.42C131.395 185.62 131.795 184.493 131.795 183.04C131.795 181.587 131.395 180.453 130.595 179.64C129.795 178.813 128.662 178.4 127.195 178.4H125.215V187.62H127.195ZM145.311 187.34H139.751L138.831 190H135.891L140.911 176.02H144.171L149.191 190H146.231L145.311 187.34ZM144.551 185.1L142.531 179.26L140.511 185.1H144.551ZM158.948 190L153.868 183.78V190H151.068V176.04H153.868V182.3L158.948 176.04H162.328L156.568 182.96L162.488 190H158.948ZM173.975 176.04C175.442 176.04 176.728 176.327 177.835 176.9C178.955 177.473 179.815 178.293 180.415 179.36C181.028 180.413 181.335 181.64 181.335 183.04C181.335 184.44 181.028 185.667 180.415 186.72C179.815 187.76 178.955 188.567 177.835 189.14C176.728 189.713 175.442 190 173.975 190H169.095V176.04H173.975ZM173.875 187.62C175.342 187.62 176.475 187.22 177.275 186.42C178.075 185.62 178.475 184.493 178.475 183.04C178.475 181.587 178.075 180.453 177.275 179.64C176.475 178.813 175.342 178.4 173.875 178.4H171.895V187.62H173.875ZM186.231 176.04V190H183.431V176.04H186.231ZM198.497 176.04V178.3H194.777V190H191.977V178.3H188.257V176.04H198.497ZM203.34 178.3V181.8H208.04V184.02H203.34V187.72H208.64V190H200.54V176.02H208.64V178.3H203.34ZM226.405 176.04V190H223.605V180.92L219.865 190H217.745L213.985 180.92V190H211.185V176.04H214.365L218.805 186.42L223.245 176.04H226.405ZM231.933 176.04V184.68C231.933 185.627 232.18 186.353 232.673 186.86C233.166 187.353 233.86 187.6 234.753 187.6C235.66 187.6 236.36 187.353 236.853 186.86C237.346 186.353 237.593 185.627 237.593 184.68V176.04H240.413V184.66C240.413 185.847 240.153 186.853 239.633 187.68C239.126 188.493 238.44 189.107 237.573 189.52C236.72 189.933 235.766 190.14 234.713 190.14C233.673 190.14 232.726 189.933 231.873 189.52C231.033 189.107 230.366 188.493 229.873 187.68C229.38 186.853 229.133 185.847 229.133 184.66V176.04H231.933ZM250.998 190L245.918 183.78V190H243.118V176.04H245.918V182.3L250.998 176.04H254.378L248.618 182.96L254.538 190H250.998ZM264.94 187.34H259.38L258.46 190H255.52L260.54 176.02H263.8L268.82 190H265.86L264.94 187.34ZM264.18 185.1L262.16 179.26L260.14 185.1H264.18ZM282.636 190H279.836L273.496 180.42V190H270.696V176.02H273.496L279.836 185.62V176.02H282.636V190Z" fill="black"/>
<rect width="246" height="33" rx="16.5" transform="matrix(-1 0 0 1 269 223)" fill="#429C4A"/>
<path d="M63.316 241.972L63.256 240.508L68.02 235.6H69.388L65.704 239.488L65.032 240.232L63.316 241.972ZM62.26 244V235.6H63.46V244H62.26ZM68.212 244L64.768 239.992L65.572 239.104L69.616 244H68.212ZM73.2678 244.072C72.5878 244.072 71.9878 243.932 71.4678 243.652C70.9558 243.372 70.5558 242.988 70.2678 242.5C69.9878 242.012 69.8478 241.452 69.8478 240.82C69.8478 240.188 69.9838 239.628 70.2558 239.14C70.5358 238.652 70.9158 238.272 71.3958 238C71.8838 237.72 72.4318 237.58 73.0398 237.58C73.6558 237.58 74.1998 237.716 74.6718 237.988C75.1438 238.26 75.5118 238.644 75.7758 239.14C76.0478 239.628 76.1838 240.2 76.1838 240.856C76.1838 240.904 76.1798 240.96 76.1718 241.024C76.1718 241.088 76.1678 241.148 76.1598 241.204H70.7478V240.376H75.5598L75.0918 240.664C75.0998 240.256 75.0158 239.892 74.8398 239.572C74.6638 239.252 74.4198 239.004 74.1078 238.828C73.8038 238.644 73.4478 238.552 73.0398 238.552C72.6398 238.552 72.2838 238.644 71.9718 238.828C71.6598 239.004 71.4158 239.256 71.2398 239.584C71.0638 239.904 70.9758 240.272 70.9758 240.688V240.88C70.9758 241.304 71.0718 241.684 71.2638 242.02C71.4638 242.348 71.7398 242.604 72.0918 242.788C72.4438 242.972 72.8478 243.064 73.3038 243.064C73.6798 243.064 74.0198 243 74.3238 242.872C74.6358 242.744 74.9078 242.552 75.1398 242.296L75.7758 243.04C75.4878 243.376 75.1278 243.632 74.6958 243.808C74.2718 243.984 73.7958 244.072 73.2678 244.072ZM85.7394 237.58C86.2514 237.58 86.7034 237.68 87.0954 237.88C87.4874 238.08 87.7914 238.384 88.0074 238.792C88.2314 239.2 88.3434 239.716 88.3434 240.34V244H87.1914V240.472C87.1914 239.856 87.0474 239.392 86.7594 239.08C86.4714 238.768 86.0674 238.612 85.5474 238.612C85.1634 238.612 84.8274 238.692 84.5394 238.852C84.2514 239.012 84.0274 239.248 83.8674 239.56C83.7154 239.872 83.6394 240.26 83.6394 240.724V244H82.4874V240.472C82.4874 239.856 82.3434 239.392 82.0554 239.08C81.7754 238.768 81.3714 238.612 80.8434 238.612C80.4674 238.612 80.1354 238.692 79.8474 238.852C79.5594 239.012 79.3354 239.248 79.1754 239.56C79.0154 239.872 78.9354 240.26 78.9354 240.724V244H77.7834V237.64H78.8874V239.332L78.7074 238.9C78.9074 238.484 79.2154 238.16 79.6314 237.928C80.0474 237.696 80.5314 237.58 81.0834 237.58C81.6914 237.58 82.2154 237.732 82.6554 238.036C83.0954 238.332 83.3834 238.784 83.5194 239.392L83.0514 239.2C83.2434 238.712 83.5794 238.32 84.0594 238.024C84.5394 237.728 85.0994 237.58 85.7394 237.58ZM93.8351 244.072C93.2911 244.072 92.7991 243.952 92.3591 243.712C91.9271 243.464 91.5831 243.1 91.3271 242.62C91.0791 242.14 90.9551 241.54 90.9551 240.82C90.9551 240.1 91.0831 239.5 91.3391 239.02C91.6031 238.54 91.9511 238.18 92.3831 237.94C92.8231 237.7 93.3071 237.58 93.8351 237.58C94.4591 237.58 95.0111 237.716 95.4911 237.988C95.9711 238.26 96.3511 238.64 96.6311 239.128C96.9111 239.608 97.0511 240.172 97.0511 240.82C97.0511 241.468 96.9111 242.036 96.6311 242.524C96.3511 243.012 95.9711 243.392 95.4911 243.664C95.0111 243.936 94.4591 244.072 93.8351 244.072ZM90.4631 244V235.096H91.6151V239.332L91.4951 240.808L91.5671 242.284V244H90.4631ZM93.7391 243.064C94.1471 243.064 94.5111 242.972 94.8311 242.788C95.1591 242.604 95.4151 242.344 95.5991 242.008C95.7911 241.664 95.8871 241.268 95.8871 240.82C95.8871 240.364 95.7911 239.972 95.5991 239.644C95.4151 239.308 95.1591 239.048 94.8311 238.864C94.5111 238.68 94.1471 238.588 93.7391 238.588C93.3391 238.588 92.9751 238.68 92.6471 238.864C92.3271 239.048 92.0711 239.308 91.8791 239.644C91.6951 239.972 91.6031 240.364 91.6031 240.82C91.6031 241.268 91.6951 241.664 91.8791 242.008C92.0711 242.344 92.3271 242.604 92.6471 242.788C92.9751 242.972 93.3391 243.064 93.7391 243.064ZM102.532 244V242.656L102.472 242.404V240.112C102.472 239.624 102.328 239.248 102.04 238.984C101.76 238.712 101.336 238.576 100.768 238.576C100.392 238.576 100.024 238.64 99.6642 238.768C99.3042 238.888 99.0002 239.052 98.7522 239.26L98.2722 238.396C98.6002 238.132 98.9922 237.932 99.4482 237.796C99.9122 237.652 100.396 237.58 100.9 237.58C101.772 237.58 102.444 237.792 102.916 238.216C103.388 238.64 103.624 239.288 103.624 240.16V244H102.532ZM100.444 244.072C99.9722 244.072 99.5562 243.992 99.1962 243.832C98.8442 243.672 98.5722 243.452 98.3802 243.172C98.1882 242.884 98.0922 242.56 98.0922 242.2C98.0922 241.856 98.1722 241.544 98.3322 241.264C98.5002 240.984 98.7682 240.76 99.1362 240.592C99.5122 240.424 100.016 240.34 100.648 240.34H102.664V241.168H100.696C100.12 241.168 99.7322 241.264 99.5322 241.456C99.3322 241.648 99.2322 241.88 99.2322 242.152C99.2322 242.464 99.3562 242.716 99.6042 242.908C99.8522 243.092 100.196 243.184 100.636 243.184C101.068 243.184 101.444 243.088 101.764 242.896C102.092 242.704 102.328 242.424 102.472 242.056L102.7 242.848C102.548 243.224 102.28 243.524 101.896 243.748C101.512 243.964 101.028 244.072 100.444 244.072ZM105.756 244V235.096H106.908V244H105.756ZM109.108 244V237.64H110.26V244H109.108ZM109.684 236.416C109.46 236.416 109.272 236.344 109.12 236.2C108.976 236.056 108.904 235.88 108.904 235.672C108.904 235.456 108.976 235.276 109.12 235.132C109.272 234.988 109.46 234.916 109.684 234.916C109.908 234.916 110.092 234.988 110.236 235.132C110.388 235.268 110.464 235.44 110.464 235.648C110.464 235.864 110.392 236.048 110.248 236.2C110.104 236.344 109.916 236.416 109.684 236.416ZM116.618 242.464L116.642 240.988L120.302 237.64H121.694L118.886 240.4L118.262 240.928L116.618 242.464ZM115.682 244V235.096H116.834V244H115.682ZM120.542 244L118.046 240.904L118.79 239.98L121.958 244H120.542ZM125.651 244.072C124.971 244.072 124.371 243.932 123.851 243.652C123.339 243.372 122.939 242.988 122.651 242.5C122.371 242.012 122.231 241.452 122.231 240.82C122.231 240.188 122.367 239.628 122.639 239.14C122.919 238.652 123.299 238.272 123.779 238C124.267 237.72 124.815 237.58 125.423 237.58C126.039 237.58 126.583 237.716 127.055 237.988C127.527 238.26 127.895 238.644 128.159 239.14C128.431 239.628 128.567 240.2 128.567 240.856C128.567 240.904 128.563 240.96 128.555 241.024C128.555 241.088 128.551 241.148 128.543 241.204H123.131V240.376H127.943L127.475 240.664C127.483 240.256 127.399 239.892 127.223 239.572C127.047 239.252 126.803 239.004 126.491 238.828C126.187 238.644 125.831 238.552 125.423 238.552C125.023 238.552 124.667 238.644 124.355 238.828C124.043 239.004 123.799 239.256 123.623 239.584C123.447 239.904 123.359 240.272 123.359 240.688V240.88C123.359 241.304 123.455 241.684 123.647 242.02C123.847 242.348 124.123 242.604 124.475 242.788C124.827 242.972 125.231 243.064 125.687 243.064C126.063 243.064 126.403 243 126.707 242.872C127.019 242.744 127.291 242.552 127.523 242.296L128.159 243.04C127.871 243.376 127.511 243.632 127.079 243.808C126.655 243.984 126.179 244.072 125.651 244.072ZM136.785 237.58C137.305 237.58 137.761 237.68 138.153 237.88C138.553 238.08 138.865 238.384 139.089 238.792C139.313 239.2 139.425 239.716 139.425 240.34V244H138.273V240.472C138.273 239.856 138.121 239.392 137.817 239.08C137.521 238.768 137.101 238.612 136.557 238.612C136.149 238.612 135.793 238.692 135.489 238.852C135.185 239.012 134.949 239.248 134.781 239.56C134.621 239.872 134.541 240.26 134.541 240.724V244H133.389V235.096H134.541V239.356L134.313 238.9C134.521 238.484 134.841 238.16 135.273 237.928C135.705 237.696 136.209 237.58 136.785 237.58ZM145.505 244V242.656L145.445 242.404V240.112C145.445 239.624 145.301 239.248 145.013 238.984C144.733 238.712 144.309 238.576 143.741 238.576C143.365 238.576 142.997 238.64 142.637 238.768C142.277 238.888 141.973 239.052 141.725 239.26L141.245 238.396C141.573 238.132 141.965 237.932 142.421 237.796C142.885 237.652 143.369 237.58 143.873 237.58C144.745 237.58 145.417 237.792 145.889 238.216C146.361 238.64 146.597 239.288 146.597 240.16V244H145.505ZM143.417 244.072C142.945 244.072 142.529 243.992 142.169 243.832C141.817 243.672 141.545 243.452 141.353 243.172C141.161 242.884 141.065 242.56 141.065 242.2C141.065 241.856 141.145 241.544 141.305 241.264C141.473 240.984 141.741 240.76 142.109 240.592C142.485 240.424 142.989 240.34 143.621 240.34H145.637V241.168H143.669C143.093 241.168 142.705 241.264 142.505 241.456C142.305 241.648 142.205 241.88 142.205 242.152C142.205 242.464 142.329 242.716 142.577 242.908C142.825 243.092 143.169 243.184 143.609 243.184C144.041 243.184 144.417 243.088 144.737 242.896C145.065 242.704 145.301 242.424 145.445 242.056L145.673 242.848C145.521 243.224 145.253 243.524 144.869 243.748C144.485 243.964 144.001 244.072 143.417 244.072ZM148.729 244V235.096H149.881V244H148.729ZM156.028 244V242.656L155.968 242.404V240.112C155.968 239.624 155.824 239.248 155.536 238.984C155.256 238.712 154.832 238.576 154.264 238.576C153.888 238.576 153.52 238.64 153.16 238.768C152.8 238.888 152.496 239.052 152.248 239.26L151.768 238.396C152.096 238.132 152.488 237.932 152.944 237.796C153.408 237.652 153.892 237.58 154.396 237.58C155.268 237.58 155.94 237.792 156.412 238.216C156.884 238.64 157.12 239.288 157.12 240.16V244H156.028ZM153.94 244.072C153.468 244.072 153.052 243.992 152.692 243.832C152.34 243.672 152.068 243.452 151.876 243.172C151.684 242.884 151.588 242.56 151.588 242.2C151.588 241.856 151.668 241.544 151.828 241.264C151.996 240.984 152.264 240.76 152.632 240.592C153.008 240.424 153.512 240.34 154.144 240.34H156.16V241.168H154.192C153.616 241.168 153.228 241.264 153.028 241.456C152.828 241.648 152.728 241.88 152.728 242.152C152.728 242.464 152.852 242.716 153.1 242.908C153.348 243.092 153.692 243.184 154.132 243.184C154.564 243.184 154.94 243.088 155.26 242.896C155.588 242.704 155.824 242.424 155.968 242.056L156.196 242.848C156.044 243.224 155.776 243.524 155.392 243.748C155.008 243.964 154.524 244.072 153.94 244.072ZM167.208 237.58C167.72 237.58 168.172 237.68 168.564 237.88C168.956 238.08 169.26 238.384 169.476 238.792C169.7 239.2 169.812 239.716 169.812 240.34V244H168.66V240.472C168.66 239.856 168.516 239.392 168.228 239.08C167.94 238.768 167.536 238.612 167.016 238.612C166.632 238.612 166.296 238.692 166.008 238.852C165.72 239.012 165.496 239.248 165.336 239.56C165.184 239.872 165.108 240.26 165.108 240.724V244H163.956V240.472C163.956 239.856 163.812 239.392 163.524 239.08C163.244 238.768 162.84 238.612 162.312 238.612C161.936 238.612 161.604 238.692 161.316 238.852C161.028 239.012 160.804 239.248 160.644 239.56C160.484 239.872 160.404 240.26 160.404 240.724V244H159.252V237.64H160.356V239.332L160.176 238.9C160.376 238.484 160.684 238.16 161.1 237.928C161.516 237.696 162 237.58 162.552 237.58C163.16 237.58 163.684 237.732 164.124 238.036C164.564 238.332 164.852 238.784 164.988 239.392L164.52 239.2C164.712 238.712 165.048 238.32 165.528 238.024C166.008 237.728 166.568 237.58 167.208 237.58ZM175.88 244V242.656L175.82 242.404V240.112C175.82 239.624 175.676 239.248 175.388 238.984C175.108 238.712 174.684 238.576 174.116 238.576C173.74 238.576 173.372 238.64 173.012 238.768C172.652 238.888 172.348 239.052 172.1 239.26L171.62 238.396C171.948 238.132 172.34 237.932 172.796 237.796C173.26 237.652 173.744 237.58 174.248 237.58C175.12 237.58 175.792 237.792 176.264 238.216C176.736 238.64 176.972 239.288 176.972 240.16V244H175.88ZM173.792 244.072C173.32 244.072 172.904 243.992 172.544 243.832C172.192 243.672 171.92 243.452 171.728 243.172C171.536 242.884 171.44 242.56 171.44 242.2C171.44 241.856 171.52 241.544 171.68 241.264C171.848 240.984 172.116 240.76 172.484 240.592C172.86 240.424 173.364 240.34 173.996 240.34H176.012V241.168H174.044C173.468 241.168 173.08 241.264 172.88 241.456C172.68 241.648 172.58 241.88 172.58 242.152C172.58 242.464 172.704 242.716 172.952 242.908C173.2 243.092 173.544 243.184 173.984 243.184C174.416 243.184 174.792 243.088 175.112 242.896C175.44 242.704 175.676 242.424 175.82 242.056L176.048 242.848C175.896 243.224 175.628 243.524 175.244 243.748C174.86 243.964 174.376 244.072 173.792 244.072ZM182.5 237.58C183.02 237.58 183.476 237.68 183.868 237.88C184.268 238.08 184.58 238.384 184.804 238.792C185.028 239.2 185.14 239.716 185.14 240.34V244H183.988V240.472C183.988 239.856 183.836 239.392 183.532 239.08C183.236 238.768 182.816 238.612 182.272 238.612C181.864 238.612 181.508 238.692 181.204 238.852C180.9 239.012 180.664 239.248 180.496 239.56C180.336 239.872 180.256 240.26 180.256 240.724V244H179.104V237.64H180.208V239.356L180.028 238.9C180.236 238.484 180.556 238.16 180.988 237.928C181.42 237.696 181.924 237.58 182.5 237.58ZM193.17 244.072C192.626 244.072 192.146 243.972 191.73 243.772C191.322 243.572 191.002 243.268 190.77 242.86C190.546 242.444 190.434 241.924 190.434 241.3V237.64H191.586V241.168C191.586 241.792 191.734 242.26 192.03 242.572C192.334 242.884 192.758 243.04 193.302 243.04C193.702 243.04 194.05 242.96 194.346 242.8C194.642 242.632 194.87 242.392 195.03 242.08C195.19 241.76 195.27 241.376 195.27 240.928V237.64H196.422V244H195.33V242.284L195.51 242.74C195.302 243.164 194.99 243.492 194.574 243.724C194.158 243.956 193.69 244.072 193.17 244.072ZM200.799 244.072C200.159 244.072 199.663 243.9 199.311 243.556C198.959 243.212 198.783 242.72 198.783 242.08V236.248H199.935V242.032C199.935 242.376 200.019 242.64 200.187 242.824C200.363 243.008 200.611 243.1 200.931 243.1C201.291 243.1 201.591 243 201.831 242.8L202.191 243.628C202.015 243.78 201.803 243.892 201.555 243.964C201.315 244.036 201.063 244.072 200.799 244.072ZM197.703 238.588V237.64H201.759V238.588H197.703ZM207.532 244V242.656L207.472 242.404V240.112C207.472 239.624 207.328 239.248 207.04 238.984C206.76 238.712 206.336 238.576 205.768 238.576C205.392 238.576 205.024 238.64 204.664 238.768C204.304 238.888 204 239.052 203.752 239.26L203.272 238.396C203.6 238.132 203.992 237.932 204.448 237.796C204.912 237.652 205.396 237.58 205.9 237.58C206.772 237.58 207.444 237.792 207.916 238.216C208.388 238.64 208.624 239.288 208.624 240.16V244H207.532ZM205.444 244.072C204.972 244.072 204.556 243.992 204.196 243.832C203.844 243.672 203.572 243.452 203.38 243.172C203.188 242.884 203.092 242.56 203.092 242.2C203.092 241.856 203.172 241.544 203.332 241.264C203.5 240.984 203.768 240.76 204.136 240.592C204.512 240.424 205.016 240.34 205.648 240.34H207.664V241.168H205.696C205.12 241.168 204.732 241.264 204.532 241.456C204.332 241.648 204.232 241.88 204.232 242.152C204.232 242.464 204.356 242.716 204.604 242.908C204.852 243.092 205.196 243.184 205.636 243.184C206.068 243.184 206.444 243.088 206.764 242.896C207.092 242.704 207.328 242.424 207.472 242.056L207.7 242.848C207.548 243.224 207.28 243.524 206.896 243.748C206.512 243.964 206.028 244.072 205.444 244.072ZM218.712 237.58C219.224 237.58 219.676 237.68 220.068 237.88C220.46 238.08 220.764 238.384 220.98 238.792C221.204 239.2 221.316 239.716 221.316 240.34V244H220.164V240.472C220.164 239.856 220.02 239.392 219.732 239.08C219.444 238.768 219.04 238.612 218.52 238.612C218.136 238.612 217.8 238.692 217.512 238.852C217.224 239.012 217 239.248 216.84 239.56C216.688 239.872 216.612 240.26 216.612 240.724V244H215.46V240.472C215.46 239.856 215.316 239.392 215.028 239.08C214.748 238.768 214.344 238.612 213.816 238.612C213.44 238.612 213.108 238.692 212.82 238.852C212.532 239.012 212.308 239.248 212.148 239.56C211.988 239.872 211.908 240.26 211.908 240.724V244H210.756V237.64H211.86V239.332L211.68 238.9C211.88 238.484 212.188 238.16 212.604 237.928C213.02 237.696 213.504 237.58 214.056 237.58C214.664 237.58 215.188 237.732 215.628 238.036C216.068 238.332 216.356 238.784 216.492 239.392L216.024 239.2C216.216 238.712 216.552 238.32 217.032 238.024C217.512 237.728 218.072 237.58 218.712 237.58ZM227.384 244V242.656L227.324 242.404V240.112C227.324 239.624 227.18 239.248 226.892 238.984C226.612 238.712 226.188 238.576 225.62 238.576C225.244 238.576 224.876 238.64 224.516 238.768C224.156 238.888 223.852 239.052 223.604 239.26L223.124 238.396C223.452 238.132 223.844 237.932 224.3 237.796C224.764 237.652 225.248 237.58 225.752 237.58C226.624 237.58 227.296 237.792 227.768 238.216C228.24 238.64 228.476 239.288 228.476 240.16V244H227.384ZM225.296 244.072C224.824 244.072 224.408 243.992 224.048 243.832C223.696 243.672 223.424 243.452 223.232 243.172C223.04 242.884 222.944 242.56 222.944 242.2C222.944 241.856 223.024 241.544 223.184 241.264C223.352 240.984 223.62 240.76 223.988 240.592C224.364 240.424 224.868 240.34 225.5 240.34H227.516V241.168H225.548C224.972 241.168 224.584 241.264 224.384 241.456C224.184 241.648 224.084 241.88 224.084 242.152C224.084 242.464 224.208 242.716 224.456 242.908C224.704 243.092 225.048 243.184 225.488 243.184C225.92 243.184 226.296 243.088 226.616 242.896C226.944 242.704 227.18 242.424 227.324 242.056L227.552 242.848C227.4 243.224 227.132 243.524 226.748 243.748C226.364 243.964 225.88 244.072 225.296 244.072Z" fill="white"/>
</svg>
