<svg width="1440" height="567" viewBox="0 0 1440 567" fill="none" xmlns="http://www.w3.org/2000/svg">
    <path
        d="M155.523 121.976C138.538 114.401 14.7638 222.974 -45 278.208V567L1483.7 552.797C1508.07 471.525 1542.2 302.826 1483.7 278.208C1410.56 247.435 1394.05 138.546 1361.02 192.99C1328 247.435 1181.73 247.435 1096.8 223.763C1011.88 200.092 1004.8 152.749 950.54 171.686C896.28 190.623 867.971 240.333 851.458 247.435C834.944 254.536 757.094 247.435 608.47 152.749C459.847 58.0627 521.184 -17.6861 424.461 3.61822C327.738 24.9226 205.064 133.811 188.551 152.749C172.037 171.686 176.755 131.444 155.523 121.976Z"
        fill="#F3F0F0" />
</svg>